<?xml version="1.0" encoding="UTF-8"?>
<!DOCTYPE svg PUBLIC "-//W3C//DTD SVG 1.1//EN" "http://www.w3.org/Graphics/SVG/1.1/DTD/svg11.dtd">
<!-- Creator: CorelDRAW -->
<svg xmlns="http://www.w3.org/2000/svg" xml:space="preserve" width="6.82666in" height="6.82666in" style="shape-rendering:geometricPrecision; text-rendering:geometricPrecision; image-rendering:optimizeQuality; fill-rule:evenodd; clip-rule:evenodd"
viewBox="0 0 6.82666 6.82666"
 xmlns:xlink="http://www.w3.org/1999/xlink">
 <defs>
  <style type="text/css">
   <![CDATA[
    .fil0 {fill:#2060f6}
    .fil1 {fill:#FFFFFE}
    .fil2 {fill:#FFFFFE;fill-rule:nonzero}
   ]]>
  </style>
 </defs>
 <g id="Layer_x0020_1">
  <metadata id="CorelCorpID_0Corel-Layer"/>
  <rect class="fil0" width="6.82666" height="6.82666" rx="0.853335" ry="0.853335"/>
  <path class="fil1" d="M3.18781 1.72267c-0.00242913,-0.00125984 -0.00487008,-0.00249606 -0.00732677,-0.00370472 -0.00884252,-0.00434646 -0.0178307,-0.00839764 -0.0269173,-0.0122008 -0.0275906,-0.0115551 -0.0565669,-0.0210709 -0.0859803,-0.0266772 -0.372972,-0.0711181 -0.768079,0.185189 -1.04076,0.413122 -0.232862,0.194654 -0.443787,0.421598 -0.633512,0.658114 -0.0795551,0.0991693 -0.0635709,0.245177 0.0356496,0.324705 0.0410945,0.0329409 0.0917362,0.0508346 0.144417,0.0508346 0.070311,0 0.136283,-0.0316299 0.18028,-0.0864882 0.107185,-0.133634 0.219575,-0.26361 0.340276,-0.38526l0.256472 -0.258488 -0.0764646 0.356012c-0.0294449,0.137094 -0.0569134,0.274917 -0.0761142,0.413866 -0.0333976,0.241669 -0.0348898,0.485075 -0.0285354,0.7285 0.000559055,0.0214134 0.00110236,0.0428307 0.0016378,0.0642441 0.00297638,0.119724 0.00566142,0.239461 0.00683465,0.35922 0.000740157,0.0758386 0.00230709,0.151768 -0.00174803,0.227547l-0.000905512 0.0169528 -0.379941 0.981961c-0.0583543,0.150811 0.0172756,0.322031 0.168181,0.380264 0.0338386,0.0130551 0.0697913,0.0198583 0.106071,0.0198583 0.121409,0 0.230449,-0.0747362 0.274248,-0.187984l0.395945 -1.02376c0.0107244,-0.0277244 0.0172087,-0.0570276 0.0191535,-0.0866929l0.0347795 -0.530445 0.349331 0.551913 0.289335 1.05877c0.0349882,0.128031 0.15076,0.218205 0.283846,0.218205 0.0256024,0 0.051122,-0.00338976 0.0758465,-0.0100394 0.155276,-0.0417717 0.250925,-0.203882 0.20839,-0.359693l-0.300886 -1.10211c-0.00782677,-0.0286575 -0.019685,-0.0562559 -0.0355866,-0.081374l-0.474366 -0.749461 0.0185394 -0.0496181c0.00634646,-0.0169882 0.0115394,-0.0343661 0.0153425,-0.0521024l0.193224 -0.901626 0.139705 0.153681c0.0574921,0.0632441 0.117346,0.124264 0.180008,0.182402 0.155913,0.14465 0.326937,0.27235 0.503937,0.389917 0.125035,0.0830551 0.322,0.000740157 0.352791,-0.145555 0.0193465,-0.0919213 -0.0191024,-0.187185 -0.0974331,-0.23926 -0.155945,-0.103677 -0.306795,-0.215811 -0.444205,-0.343311 -0.102299,-0.0949173 -0.195051,-0.198236 -0.283091,-0.306374 -0.0299961,-0.0368425 -0.0595236,-0.0740591 -0.0890512,-0.111272 -0.0967913,-0.121988 -0.195087,-0.242831 -0.300571,-0.357476 -0.0105945,-0.0115118 -0.0239528,-0.0218425 -0.036063,-0.031689 -0.0476575,-0.038752 -0.0974528,-0.0780157 -0.152339,-0.10613 -0.000818898,-0.00042126 -0.00163386,-0.000854331 -0.00244882,-0.0012874z"/>
  <path class="fil1" d="M3.67575 1.24402l0 -0.0194961c-3.93701e-006,-0.119646 -0.0466457,-0.233252 -0.13128,-0.317886 -0.0846496,-0.0846496 -0.19815,-0.131693 -0.317882,-0.131693 -0.11974,0 -0.233236,0.0470276 -0.31789,0.131685 -0.0846535,0.0846496 -0.131689,0.198157 -0.131689,0.317894 0,0.11974 0.0470236,0.233244 0.131681,0.317898 0.0846378,0.0846417 0.198256,0.13126 0.317902,0.131264l0.0194961 0c0.112512,-0.00481496 0.21835,-0.0512283 0.298394,-0.131276 0.0800472,-0.0800433 0.126453,-0.185878 0.131268,-0.29839z"/>
  <path class="fil2" d="M3.87622 3.88642l-0.026563 -0.075311 1.34987 -0.476449c0.0373228,-0.0131732 0.0767362,-0.00984252 0.110146,0.0061378 0.0334134,0.0159724 0.0607441,0.0445748 0.0739252,0.0819173l0.046 0.130335 -1.6134 0.578445c-0.00194488,0.000685039 -0.00383071,0.00146457 -0.00565748,0.00232677l-0.0473701 -0.134205c-0.000606299,-0.00144094 -0.00117323,-0.00290157 -0.00170079,-0.0043937l0.000133858 -4.72441e-005 0.00011811 -3.93701e-005 0.075189 -0.0265315 -0.075311 0.026563c-0.0131654,-0.0373228 -0.00983858,-0.0767244 0.00614173,-0.110134 0.0150118,-0.0314016 0.0411811,-0.057437 0.0752717,-0.0713898 0.0021378,-0.000972441 0.00433071,-0.00186614 0.00658661,-0.00266142l4.72441e-005 0.000133858 7.87402e-006 -3.93701e-006 0.0132795 0.0376496 0.0132913 0.0376575zm1.59271 -0.221941l0.193429 0.548031c0.0131732,0.0373228 0.00984252,0.0767362 -0.0061378,0.110146 -0.0159724,0.0334134 -0.0445709,0.0607441 -0.0819173,0.0739252l-1.34987 0.476445c-0.0373189,0.0131732 -0.0767323,0.00984252 -0.110146,-0.0061378 -0.0334134,-0.0159724 -0.0607441,-0.0445709 -0.0739252,-0.0819173l-0.190709 -0.540307c0.00195276,-0.000472441 0.00390551,-0.00104331 0.00584252,-0.00172835l1.61343 -0.578457z"/>
  <path class="fil2" d="M4.77352 3.6544l-0.391606 0.13822c-0.0310157,0.0109409 -0.0637756,0.00817717 -0.0915709,-0.00511811 -0.0277795,-0.0132913 -0.0505118,-0.0370669 -0.0614724,-0.0681024l-0.0686457 -0.194484 -0.000129921 4.72441e-005c-0.000952756,-0.00269291 -0.00174803,-0.00540551 -0.00239764,-0.00812598 -0.00785827,-0.0285748 -0.00450787,-0.058122 0.00764173,-0.0835079 0.0132756,-0.0277795 0.0370276,-0.0504961 0.0680669,-0.0614606l-4.72441e-005 -0.000133858c0.00148819,-0.000527559 0.00298425,-0.001 0.00448425,-0.00143307l0.387201 -0.136669c0.0310236,-0.0109528 0.0637795,-0.00816142 0.0915709,0.00511811 0.0277913,0.0132953 0.0505315,0.0370709 0.0614764,0.0681024l0.0686496 0.1945c0.0109528,0.0310236 0.00816142,0.0637795 -0.00511811,0.0915709 -0.0132953,0.0277913 -0.0370709,0.0505315 -0.0681024,0.0614764zm-0.407264 -0.025626l0.316638 -0.11176 -0.042189 -0.119535 -0.316638 0.111764 0.042189 0.119531z"/>
 </g>
</svg>
